<svg id="blackjackIcon" width="20" height="20" viewBox="0 0 20 20" fill="none" xmlns="http://www.w3.org/2000/svg">
<rect x="2" y="4.00007" width="12" height="15" rx="3.48214" fill="#80F31D" stroke="#80F31D" stroke-width="1.16071"/>
<path d="M6.42709 3.69248V3.69248C6.67163 2.25681 8.03372 1.2912 9.46939 1.53575L15.5673 2.57442C17.4631 2.89735 18.7382 4.696 18.4153 6.59183L17.1199 14.1969C16.827 15.9168 15.1953 17.0735 13.4755 16.7805V16.7805" stroke="#80F31D" stroke-width="1.16071"/>
<path d="M6.33762 11.663L7.87212 12.953C7.9435 13.0158 8.0565 13.0158 8.12788 12.953L9.66238 11.663C10.0609 11.3262 10.1144 10.7554 9.78134 10.3558C9.44826 9.95627 8.8416 9.88207 8.41931 10.1903L8.00297 10.4985L7.58069 10.196C7.15245 9.88778 6.55174 9.96198 6.21866 10.3615C5.88559 10.7554 5.93912 11.3319 6.33762 11.663Z" fill="#1A1A1A" stroke="#1A1A1A" stroke-linecap="round" stroke-linejoin="round"/>
</svg>
