<svg id="bigBookmarkIcon" width="65" height="64" viewBox="0 0 65 64" fill="none" xmlns="http://www.w3.org/2000/svg">
<path d="M59.1663 20.8262V43.1729C59.1663 51.7329 52.233 58.6662 43.673 58.6662H21.3263C12.7663 58.6662 5.83301 51.7329 5.83301 43.1729V20.8262C5.83301 14.1862 8.55301 9.35955 13.3797 7.01288C15.1397 6.15955 17.1663 7.49288 17.1663 9.43955V33.1195C17.1663 36.2929 18.393 38.8262 20.6063 40.1062C22.8463 41.3595 25.673 41.0929 28.553 39.3595L32.0197 37.2795C32.233 37.1729 32.7663 37.1729 32.9263 37.2529L36.4463 39.3595C38.3663 40.5062 40.0197 40.8795 41.353 40.8795C42.7397 40.8795 43.8063 40.4529 44.4463 40.0795C46.6063 38.8262 47.833 36.2929 47.833 33.1195V9.43955C47.833 7.49288 49.8863 6.15955 51.6197 7.01288C56.4463 9.35955 59.1663 14.1862 59.1663 20.8262Z" fill="#7F7F7F"/>
<path d="M41.167 5.3335C42.6337 5.3335 43.8337 6.5335 43.8337 8.00016V33.1202C43.8337 34.8268 43.327 36.1068 42.447 36.6135C41.5403 37.1468 40.1003 36.8802 38.5003 35.9202L34.9803 33.8135C33.6203 32.9868 31.3803 32.9868 30.0203 33.8135L26.5003 35.9202C24.9003 36.8802 23.4603 37.1202 22.5537 36.6135C21.6737 36.1068 21.167 34.8268 21.167 33.1202V8.00016C21.167 6.5335 22.367 5.3335 23.8337 5.3335H41.167Z" fill="#7F7F7F"/>
</svg>
