<svg id="cardsLogo" width="16" height="16" viewBox="0 0 16 16" fill="none" xmlns="http://www.w3.org/2000/svg">
<path d="M0.000881054 6.70155C0.000881054 6.24677 0.000881054 5.792 0.000881054 5.33752C0.000881054 3.9954 0.00205264 2.65328 2.36794e-06 1.31116C-0.000583423 0.961828 0.107495 0.655434 0.349134 0.403074C0.579642 0.16269 0.862872 0.0110991 1.2 0.00613374C1.86545 -0.00379708 2.5312 0.00146041 3.19696 0.000876248C3.78714 0.000292083 4.37703 0.000876248 4.96722 0.000876248C6.50082 0.000876248 8.03442 -0.00116833 9.56802 0.0017525C10.1198 0.00292083 10.5205 0.257033 10.7636 0.751237C10.8497 0.926486 10.8784 1.11488 10.8781 1.30999C10.8767 2.5014 10.8773 3.69309 10.8773 4.8845C10.8773 6.75909 10.8776 8.63367 10.8773 10.5083C10.8773 11.0723 10.8805 11.6363 10.8732 12.2C10.867 12.6694 10.5243 13.1379 10.0829 13.3073C9.91217 13.3727 9.73731 13.4028 9.55484 13.4028C7.48465 13.4016 5.41447 13.4022 3.34428 13.4019C2.66389 13.4019 1.98378 13.4019 1.30339 13.4019C0.696215 13.4019 0.196242 13.0246 0.0395433 12.4386C0.00996081 12.3276 0.00322422 12.2079 0.00234553 12.0919C-0.000290528 11.7029 0.00586028 11.3138 0.00615317 10.9251C0.00673896 9.51722 0.00615317 8.10939 0.00615317 6.70155C0.0043958 6.70155 0.00234553 6.70155 0.000588159 6.70155H0.000881054ZM5.7305 7.69989L5.75862 7.68061C5.77444 7.68995 5.78996 7.70018 5.80636 7.70806C6.24512 7.9242 6.70614 7.93355 7.15602 7.78693C7.85956 7.55764 8.11584 6.80407 7.90613 6.14075C7.79249 5.78119 7.58834 5.46925 7.36134 5.17308C6.83823 4.49106 6.2047 3.91975 5.53924 3.38086C5.4628 3.31894 5.4051 3.32419 5.33539 3.38495C5.0958 3.59379 4.85152 3.79678 4.61398 4.00767C4.21272 4.36459 3.84191 4.75131 3.51885 5.18038C3.24499 5.54402 2.99427 5.92227 2.91753 6.38522C2.8449 6.82247 3.01009 7.37509 3.43127 7.65257C3.81614 7.9058 4.24054 7.89967 4.66905 7.83541C4.82575 7.81205 4.97571 7.74516 5.14061 7.69434C5.13153 7.72793 5.12655 7.76122 5.11366 7.79131C4.89926 8.29749 4.68428 8.80337 4.46842 9.30926C4.41979 9.42347 4.43063 9.44537 4.55189 9.4556C5.14237 9.50496 5.73314 9.507 6.32362 9.45618C6.4437 9.44566 6.45952 9.41879 6.41178 9.30984C6.2419 8.91933 6.07085 8.5294 5.90331 8.13801C5.84151 7.99372 5.78762 7.84622 5.73021 7.69989H5.7305Z" fill="#E2E2E4"/>
<path d="M15.6173 3.46776C15.4116 3.25425 15.139 3.16925 14.8654 3.08601C14.5491 2.99021 14.2345 2.88973 13.919 2.79101C13.5386 2.67184 13.1587 2.55091 12.7782 2.43262C12.3928 2.31287 12.0064 2.19574 11.621 2.07599C11.5249 2.0462 11.5214 2.0462 11.5214 2.14463C11.5214 3.03431 11.5211 3.9237 11.5211 4.81339C11.5211 5.02661 11.5211 5.23983 11.5211 5.45305C11.5237 5.45363 11.5261 5.45422 11.5287 5.45509C12.3119 5.67182 12.7706 6.48089 12.5533 7.26221C12.5439 7.29609 12.5334 7.3291 12.5216 7.36181C12.439 7.59402 12.3023 7.79351 12.13 7.95094C12.1845 7.9597 12.239 7.9711 12.2935 7.98628C12.5518 8.05784 12.7744 8.19395 12.9493 8.37183C13.3054 8.73372 13.4636 9.26969 13.318 9.7934C13.1019 10.57 12.2985 11.0266 11.5194 10.8183C11.5191 11.0412 11.5185 11.2643 11.5185 11.4872C11.5185 11.7083 11.5249 11.9297 11.5191 12.1508C11.5024 12.7607 11.2531 13.2593 10.7745 13.6375C10.4093 13.9261 9.98634 14.0444 9.5221 14.0432C8.07373 14.0397 6.62536 14.0417 5.177 14.042C5.14214 14.042 5.10729 14.0461 5.07273 14.0485C5.07214 14.0546 5.07155 14.061 5.07097 14.0672C5.07624 14.0718 5.08063 14.0785 5.08678 14.0803C5.36064 14.1662 5.6345 14.2515 5.90836 14.3367C6.25661 14.4451 6.60486 14.5535 6.95311 14.6621C7.30605 14.7722 7.6587 14.8826 8.01135 14.9925C8.3224 15.0894 8.63346 15.1858 8.94451 15.2828C9.25996 15.3815 9.57511 15.4811 9.89027 15.5799C10.1823 15.6713 10.4743 15.763 10.7666 15.8532C11.116 15.9607 11.5191 16.06 11.8814 15.9572C12.2604 15.8497 12.5612 15.5156 12.6862 15.1514C12.7823 14.8715 12.8655 14.5874 12.9542 14.3049C13.0541 13.9877 13.1543 13.6708 13.2536 13.3536C13.3614 13.0084 13.4674 12.6625 13.5749 12.3173C13.6853 11.963 13.7963 11.6087 13.9073 11.2544C14.0262 10.8744 14.1449 10.4947 14.2638 10.1147C14.3733 9.76507 14.4829 9.41544 14.5924 9.06582C14.7137 8.6791 14.8346 8.29239 14.9556 7.90538C15.0643 7.55809 15.1723 7.21051 15.281 6.86322C15.3911 6.51126 15.5019 6.15931 15.6117 5.80705C15.7294 5.42968 15.8624 5.05611 15.9591 4.67348C16.0748 4.2152 15.9459 3.80833 15.6178 3.46776H15.6173Z" fill="#E2E2E4"/>
</svg>
