
<svg width="16" height="16" id="copyIcon" viewBox="0 0 16 16" fill="none" xmlns="http://www.w3.org/2000/svg">
<path d="M10.6673 8.59998V11.4C10.6673 13.7333 9.73398 14.6666 7.40065 14.6666H4.60065C2.26732 14.6666 1.33398 13.7333 1.33398 11.4V8.59998C1.33398 6.26665 2.26732 5.33331 4.60065 5.33331H7.40065C9.73398 5.33331 10.6673 6.26665 10.6673 8.59998Z" fill="white"/>
<path d="M11.3998 1.33334H8.59984C6.64454 1.33334 5.67696 1.99343 5.41447 3.57576C5.33093 4.07938 5.75692 4.50001 6.26742 4.50001H7.39984C10.1998 4.50001 11.4998 5.80001 11.4998 8.60001V9.73243C11.4998 10.2429 11.9205 10.6689 12.4241 10.5854C14.0064 10.3229 14.6665 9.35532 14.6665 7.40001V4.60001C14.6665 2.26668 13.7332 1.33334 11.3998 1.33334Z" fill="white"/>
</svg>
