<svg id="happyEmojiIcon" width="16" height="16" viewBox="0 0 16 16" fill="none" xmlns="http://www.w3.org/2000/svg">
<path d="M10.794 1.33398H5.20732C2.78065 1.33398 1.33398 2.78065 1.33398 5.20732V10.7873C1.33398 13.2207 2.78065 14.6673 5.20732 14.6673H10.7873C13.214 14.6673 14.6607 13.2207 14.6607 10.794V5.20732C14.6673 2.78065 13.2207 1.33398 10.794 1.33398ZM5.66732 4.25398C6.35398 4.25398 6.92065 4.81398 6.92065 5.50732C6.92065 6.20065 6.36065 6.76065 5.66732 6.76065C4.97398 6.76065 4.41398 6.18732 4.41398 5.50065C4.41398 4.81398 4.98065 4.25398 5.66732 4.25398ZM8.00065 12.7207C6.20732 12.7207 4.74732 11.2607 4.74732 9.46732C4.74732 9.00065 5.12732 8.61398 5.59398 8.61398H10.394C10.8607 8.61398 11.2407 8.99398 11.2407 9.46732C11.254 11.2607 9.79398 12.7207 8.00065 12.7207ZM10.334 6.74732C9.64732 6.74732 9.08065 6.18732 9.08065 5.49398C9.08065 4.80065 9.64065 4.24065 10.334 4.24065C11.0273 4.24065 11.5873 4.80065 11.5873 5.49398C11.5873 6.18732 11.0207 6.74732 10.334 6.74732Z" fill="#C1FF11"/>
</svg>
