<svg id="gamepadIcon" width="20" height="20" viewBox="0 0 20 20" fill="none" xmlns="http://www.w3.org/2000/svg">
<path d="M13.8753 4.76667H6.12533C3.66699 4.76667 1.66699 6.76667 1.66699 9.225V13.875C1.66699 16.3333 3.66699 18.3333 6.12533 18.3333H13.8753C16.3337 18.3333 18.3337 16.3333 18.3337 13.875V9.225C18.3337 6.76667 16.3337 4.76667 13.8753 4.76667ZM12.0837 10.0167C12.0837 9.55833 12.4587 9.18333 12.917 9.18333C13.3753 9.18333 13.7503 9.55833 13.7503 10.0167C13.7503 10.475 13.3753 10.8583 12.917 10.8583C12.4587 10.8583 12.0837 10.4917 12.0837 10.0333V10.0167ZM8.44199 13.3917C8.31699 13.5167 8.15866 13.575 8.00033 13.575C7.84199 13.575 7.68366 13.5167 7.55866 13.3917L6.70033 12.5333L5.87533 13.3583C5.75033 13.4833 5.59199 13.5417 5.43366 13.5417C5.27533 13.5417 5.11699 13.4833 4.99199 13.3583C4.75033 13.1167 4.75033 12.7167 4.99199 12.475L5.81699 11.65L5.01699 10.85C4.77533 10.6083 4.77533 10.2083 5.01699 9.96667C5.25866 9.725 5.65866 9.725 5.90033 9.96667L6.70033 10.7667L7.52533 9.94167C7.76699 9.7 8.16699 9.7 8.40866 9.94167C8.65033 10.1833 8.65033 10.5833 8.40866 10.825L7.58366 11.65L8.44199 12.5083C8.68366 12.75 8.68366 13.15 8.44199 13.3917ZM11.2837 12.5C10.8253 12.5 10.442 12.125 10.442 11.6667C10.442 11.2083 10.8087 10.8333 11.267 10.8333H11.2837C11.742 10.8333 12.117 11.2083 12.117 11.6667C12.117 12.125 11.7503 12.5 11.2837 12.5ZM12.917 14.1417C12.4587 14.1417 12.0837 13.775 12.0837 13.3167V13.3C12.0837 12.8417 12.4587 12.4667 12.917 12.4667C13.3753 12.4667 13.7503 12.8417 13.7503 13.3C13.7503 13.7583 13.3837 14.1417 12.917 14.1417ZM14.567 12.5C14.1087 12.5 13.7253 12.125 13.7253 11.6667C13.7253 11.2083 14.092 10.8333 14.5503 10.8333H14.567C15.0253 10.8333 15.4003 11.2083 15.4003 11.6667C15.4003 12.125 15.0337 12.5 14.567 12.5Z" fill="#C1FF11"/>
<path d="M11.3671 2.25833L11.3588 3.04167C11.3505 3.775 10.7421 4.38333 10.0005 4.38333C9.87546 4.38333 9.80046 4.46667 9.80046 4.575C9.80046 4.68333 9.88379 4.76667 9.99212 4.76667H8.65046C8.64212 4.70833 8.63379 4.64167 8.63379 4.575C8.63379 3.825 9.24212 3.21667 9.98379 3.21667C10.1088 3.21667 10.1921 3.13333 10.1921 3.025L10.2005 2.24167C10.2088 1.925 10.4671 1.66667 10.7838 1.66667H10.7921C11.1171 1.66667 11.3671 1.93333 11.3671 2.25833Z" fill="#C1FF11"/>
</svg>
