<svg id="giftIcon" width="40" height="40" viewBox="0 0 40 40" fill="none" xmlns="http://www.w3.org/2000/svg">
<path d="M33.3337 20V30C33.3337 33.6833 30.3503 36.6667 26.667 36.6667H13.3337C9.65033 36.6667 6.66699 33.6833 6.66699 30V20C6.66699 19.0833 7.41699 18.3333 8.33366 18.3333H11.617C12.5337 18.3333 13.2837 19.0833 13.2837 20V25.2333C13.2837 26.4667 13.967 27.6 15.0503 28.1833C15.5337 28.45 16.067 28.5833 16.617 28.5833C17.2503 28.5833 17.8837 28.4 18.4337 28.0333L20.017 27L21.4837 27.9833C22.5003 28.6667 23.8003 28.75 24.8837 28.1667C25.9837 27.5833 26.667 26.4667 26.667 25.2167V20C26.667 19.0833 27.417 18.3333 28.3337 18.3333H31.667C32.5837 18.3333 33.3337 19.0833 33.3337 20Z" fill="#7F7F7F"/>
<path d="M35.8337 11.6667V13.3333C35.8337 15.1667 34.9503 16.6667 32.5003 16.6667H7.50033C4.95033 16.6667 4.16699 15.1667 4.16699 13.3333V11.6667C4.16699 9.83333 4.95033 8.33333 7.50033 8.33333H32.5003C34.9503 8.33333 35.8337 9.83333 35.8337 11.6667Z" fill="#7F7F7F"/>
<path d="M19.4 8.33333H10.2C9.6333 7.71666 9.64997 6.76666 10.25 6.16666L12.6166 3.79999C13.2333 3.18333 14.25 3.18333 14.8666 3.79999L19.4 8.33333Z" fill="#7F7F7F"/>
<path d="M29.783 8.33333H20.583L25.1163 3.79999C25.733 3.18333 26.7497 3.18333 27.3663 3.79999L29.733 6.16666C30.333 6.76666 30.3497 7.71666 29.783 8.33333Z" fill="#7F7F7F"/>
<path d="M23.2837 18.3333C24.2004 18.3333 24.9504 19.0833 24.9504 20V25.2167C24.9504 26.55 23.4671 27.35 22.3671 26.6L20.8671 25.6C20.3171 25.2333 19.6004 25.2333 19.0337 25.6L17.4671 26.6333C16.3671 27.3667 14.9004 26.5667 14.9004 25.25V20C14.9004 19.0833 15.6504 18.3333 16.5671 18.3333H23.2837Z" fill="#7F7F7F"/>
</svg>
