<svg id="giftIcon" width="100%" height="100%" viewBox="0 0 20 20" fill="currentColor" xmlns="http://www.w3.org/2000/svg">
  <path d="M16.668 10v5a3.333 3.333 0 0 1 -3.334 3.334H6.667A3.333 3.333 0 0 1 3.334 15V10c0 -0.459 0.375 -0.834 0.834 -0.834h1.641c0.459 0 0.834 0.375 0.834 0.834v2.616c0 0.617 0.341 1.184 0.882 1.475a1.638 1.638 0 0 0 1.691 -0.075l0.792 -0.516 0.734 0.491a1.638 1.638 0 0 0 1.7 0.092 1.663 1.663 0 0 0 0.891 -1.475V10c0 -0.459 0.375 -0.834 0.834 -0.834h1.666c0.459 0 0.834 0.375 0.834 0.834" />
  <path d="M17.918 5.834v0.833c0 0.917 -0.443 1.667 -1.667 1.667H3.75c-1.275 0 -1.666 -0.75 -1.666 -1.667v-0.833c0 -0.917 0.391 -1.667 1.666 -1.667h12.5c1.225 0 1.667 0.75 1.667 1.667" />
  <path d="M9.7 4.166H5.1a0.78 0.78 0 0 1 0.025 -1.083l1.184 -1.184a0.8 0.8 0 0 1 1.125 0z" />
  <path d="M14.891 4.166h-4.6l2.266 -2.266a0.8 0.8 0 0 1 1.125 0l1.184 1.184c0.3 0.3 0.309 0.775 0.025 1.083"/>
  <path d="M11.643 9.166c0.458 0 0.833 0.375 0.833 0.834v2.609a0.828 0.828 0 0 1 -1.291 0.691l-0.75 -0.5a0.838 0.838 0 0 0 -0.916 0l-0.784 0.516A0.828 0.828 0 0 1 7.45 12.625V10c0 -0.459 0.375 -0.834 0.834 -0.834z"/>
</svg>
