<svg id="globalLogo" width="16" height="16" viewBox="0 0 16 16" fill="none" xmlns="http://www.w3.org/2000/svg">
<path d="M5.09999 13.9412C5.07999 13.9412 5.05333 13.9545 5.03333 13.9545C3.73999 13.3145 2.68666 12.2545 2.03999 10.9612C2.03999 10.9412 2.05333 10.9145 2.05333 10.8945C2.86666 11.1345 3.70666 11.3145 4.53999 11.4545C4.68666 12.2945 4.85999 13.1279 5.09999 13.9412Z" fill="white"/>
<path d="M13.96 10.9679C13.3 12.2945 12.2 13.3679 10.86 14.0145C11.1133 13.1679 11.3267 12.3145 11.4667 11.4545C12.3067 11.3145 13.1333 11.1345 13.9467 10.8945C13.94 10.9212 13.96 10.9479 13.96 10.9679Z" fill="white"/>
<path d="M14.0133 5.14161C13.1733 4.88828 12.3267 4.68161 11.4667 4.53495C11.3267 3.67495 11.12 2.82161 10.86 1.98828C12.24 2.64828 13.3533 3.76161 14.0133 5.14161Z" fill="white"/>
<path d="M5.1 2.05906C4.86 2.8724 4.68666 3.69906 4.54666 4.53906C3.68666 4.6724 2.83333 4.88573 1.98666 5.13906C2.63333 3.79906 3.70666 2.69906 5.03333 2.03906C5.05333 2.03906 5.08 2.05906 5.1 2.05906Z" fill="white"/>
<path d="M10.3267 4.39203C8.78001 4.2187 7.22001 4.2187 5.67334 4.39203C5.84001 3.4787 6.05334 2.56536 6.35334 1.68536C6.36667 1.63203 6.36001 1.59203 6.36667 1.5387C6.89334 1.41203 7.43334 1.33203 8.00001 1.33203C8.56001 1.33203 9.10667 1.41203 9.62667 1.5387C9.63334 1.59203 9.63334 1.63203 9.64667 1.68536C9.94667 2.57203 10.16 3.4787 10.3267 4.39203Z" fill="white"/>
<path d="M4.39333 10.3252C3.47333 10.1585 2.56666 9.94521 1.68666 9.64521C1.63333 9.63188 1.59333 9.63854 1.53999 9.63187C1.41333 9.10521 1.33333 8.56521 1.33333 7.99854C1.33333 7.43854 1.41333 6.89188 1.53999 6.37188C1.59333 6.36521 1.63333 6.36521 1.68666 6.35187C2.57333 6.05854 3.47333 5.83854 4.39333 5.67188C4.22666 7.21854 4.22666 8.77854 4.39333 10.3252Z" fill="white"/>
<path d="M14.6667 7.99854C14.6667 8.56521 14.5867 9.10521 14.46 9.63187C14.4067 9.63854 14.3667 9.63188 14.3133 9.64521C13.4267 9.93854 12.52 10.1585 11.6067 10.3252C11.78 8.77854 11.78 7.21854 11.6067 5.67188C12.52 5.83854 13.4333 6.05187 14.3133 6.35187C14.3667 6.36521 14.4067 6.37188 14.46 6.37188C14.5867 6.89854 14.6667 7.43854 14.6667 7.99854Z" fill="white"/>
<path d="M10.3267 11.6055C10.16 12.5255 9.94667 13.4321 9.64667 14.3121C9.63334 14.3655 9.63334 14.4055 9.62667 14.4588C9.10667 14.5855 8.56001 14.6655 8.00001 14.6655C7.43334 14.6655 6.89334 14.5855 6.36667 14.4588C6.36001 14.4055 6.36667 14.3655 6.35334 14.3121C6.06001 13.4255 5.84001 12.5255 5.67334 11.6055C6.44667 11.6921 7.22001 11.7521 8.00001 11.7521C8.78001 11.7521 9.56001 11.6921 10.3267 11.6055Z" fill="white"/>
<path d="M10.5089 10.5076C8.84149 10.718 7.1585 10.718 5.49111 10.5076C5.28074 8.84019 5.28074 7.15721 5.49111 5.48981C7.1585 5.27944 8.84149 5.27944 10.5089 5.48981C10.7193 7.15721 10.7193 8.84019 10.5089 10.5076Z" fill="white"/>
</svg>
