<svg id="infoIconWhite" width="16" height="16" viewBox="0 0 16 16" fill="none" xmlns="http://www.w3.org/2000/svg">
<path d="M8.00065 1.33203C6.68211 1.33203 5.39318 1.72302 4.29685 2.45557C3.20052 3.18811 2.34604 4.2293 1.84146 5.44747C1.33687 6.66565 1.20485 8.00609 1.46209 9.2993C1.71932 10.5925 2.35426 11.7804 3.28661 12.7127C4.21896 13.6451 5.40685 14.28 6.70005 14.5373C7.99326 14.7945 9.3337 14.6625 10.5519 14.1579C11.7701 13.6533 12.8112 12.7988 13.5438 11.7025C14.2763 10.6062 14.6673 9.31724 14.6673 7.9987C14.6673 7.12322 14.4949 6.25631 14.1599 5.44747C13.8248 4.63864 13.3338 3.90371 12.7147 3.28465C12.0956 2.6656 11.3607 2.17453 10.5519 1.8395C9.74304 1.50447 8.87613 1.33203 8.00065 1.33203ZM8.66732 10.6654C8.66732 10.8422 8.59708 11.0117 8.47206 11.1368C8.34703 11.2618 8.17747 11.332 8.00065 11.332C7.82384 11.332 7.65427 11.2618 7.52925 11.1368C7.40423 11.0117 7.33399 10.8422 7.33399 10.6654V7.33203C7.33399 7.15522 7.40423 6.98565 7.52925 6.86063C7.65427 6.7356 7.82384 6.66536 8.00065 6.66536C8.17747 6.66536 8.34703 6.7356 8.47206 6.86063C8.59708 6.98565 8.66732 7.15522 8.66732 7.33203V10.6654ZM8.00065 5.9987C7.8688 5.9987 7.73991 5.9596 7.63027 5.88634C7.52064 5.81309 7.43519 5.70897 7.38473 5.58715C7.33428 5.46534 7.32107 5.33129 7.3468 5.20197C7.37252 5.07265 7.43602 4.95386 7.52925 4.86063C7.62249 4.76739 7.74127 4.7039 7.87059 4.67817C7.99992 4.65245 8.13396 4.66565 8.25578 4.71611C8.37759 4.76657 8.48171 4.85202 8.55497 4.96165C8.62822 5.07128 8.66732 5.20018 8.66732 5.33203C8.66732 5.50884 8.59708 5.67841 8.47206 5.80344C8.34703 5.92846 8.17747 5.9987 8.00065 5.9987Z" fill="white"/>
</svg>
