<svg id="lock2Icon" width="20" height="20" viewBox="0 0 20 20" fill="none" xmlns="http://www.w3.org/2000/svg">
<path d="M15.625 6.66797V8.41797C15.2583 8.36797 14.8417 8.34297 14.375 8.33464V6.66797C14.375 4.04297 13.6333 2.29297 10 2.29297C6.36667 2.29297 5.625 4.04297 5.625 6.66797V8.33464C5.15833 8.34297 4.74167 8.36797 4.375 8.41797V6.66797C4.375 4.2513 4.95833 1.04297 10 1.04297C15.0417 1.04297 15.625 4.2513 15.625 6.66797Z" fill="white"/>
<path d="M15.6248 8.41536C15.2582 8.36536 14.8415 8.34036 14.3748 8.33203H5.62484C5.15817 8.34036 4.7415 8.36536 4.37484 8.41536C2.24984 8.6737 1.6665 9.71536 1.6665 12.4987V14.1654C1.6665 17.4987 2.49984 18.332 5.83317 18.332H14.1665C17.4998 18.332 18.3332 17.4987 18.3332 14.1654V12.4987C18.3332 9.71536 17.7498 8.6737 15.6248 8.41536ZM7.25817 13.9237C7.09984 14.0737 6.88317 14.1654 6.6665 14.1654C6.55817 14.1654 6.44984 14.1404 6.34984 14.0987C6.2415 14.057 6.15817 13.9987 6.07484 13.9237C5.92484 13.7654 5.83317 13.5487 5.83317 13.332C5.83317 13.2237 5.85817 13.1154 5.89984 13.0154C5.9415 12.9154 5.99984 12.8237 6.07484 12.7404C6.15817 12.6654 6.2415 12.607 6.34984 12.5654C6.65817 12.432 7.02484 12.507 7.25817 12.7404C7.33317 12.8237 7.3915 12.9154 7.43317 13.0154C7.47484 13.1154 7.49984 13.2237 7.49984 13.332C7.49984 13.5487 7.40817 13.7654 7.25817 13.9237ZM10.7665 13.6487C10.7248 13.7487 10.6665 13.8404 10.5915 13.9237C10.4332 14.0737 10.2165 14.1654 9.99984 14.1654C9.77484 14.1654 9.5665 14.0737 9.40817 13.9237C9.33317 13.8404 9.27484 13.7487 9.23317 13.6487C9.1915 13.5487 9.1665 13.4404 9.1665 13.332C9.1665 13.107 9.25817 12.8987 9.40817 12.7404C9.7165 12.432 10.2748 12.432 10.5915 12.7404C10.7415 12.8987 10.8332 13.107 10.8332 13.332C10.8332 13.4404 10.8082 13.5487 10.7665 13.6487ZM13.9248 13.9237C13.7665 14.0737 13.5498 14.1654 13.3332 14.1654C13.1165 14.1654 12.8998 14.0737 12.7415 13.9237C12.5915 13.7654 12.4998 13.557 12.4998 13.332C12.4998 13.107 12.5915 12.8987 12.7415 12.7404C13.0582 12.432 13.6165 12.432 13.9248 12.7404C13.9582 12.782 13.9915 12.8237 14.0248 12.8737C14.0582 12.9154 14.0832 12.9654 14.0998 13.0154C14.1248 13.0654 14.1415 13.1154 14.1498 13.1654C14.1582 13.2237 14.1665 13.282 14.1665 13.332C14.1665 13.5487 14.0748 13.7654 13.9248 13.9237Z" fill="white"/>
</svg>
