<svg id="logoutIcon" width="20" height="20" viewBox="0 0 20 20" fill="none" xmlns="http://www.w3.org/2000/svg">
<path d="M14 1.66667H11.8333C9.16667 1.66667 7.5 3.33334 7.5 6.00001V9.37501H12.7083C13.05 9.37501 13.3333 9.65834 13.3333 10C13.3333 10.3417 13.05 10.625 12.7083 10.625H7.5V14C7.5 16.6667 9.16667 18.3333 11.8333 18.3333H13.9917C16.6583 18.3333 18.325 16.6667 18.325 14V6.00001C18.3333 3.33334 16.6667 1.66667 14 1.66667Z" fill="#E2E2E4"/>
<path d="M3.79995 9.375L5.52495 7.65C5.64995 7.525 5.70828 7.36667 5.70828 7.20834C5.70828 7.05 5.64995 6.88334 5.52495 6.76667C5.28328 6.525 4.88328 6.525 4.64162 6.76667L1.84995 9.55834C1.60828 9.8 1.60828 10.2 1.84995 10.4417L4.64162 13.2333C4.88328 13.475 5.28328 13.475 5.52495 13.2333C5.76662 12.9917 5.76662 12.5917 5.52495 12.35L3.79995 10.625H7.49995V9.375H3.79995Z" fill="#E2E2E4"/>
</svg>
