<svg id="monitorIcon" width="20" height="20" viewBox="0 0 20 20" fill="none" xmlns="http://www.w3.org/2000/svg">
<path d="M14.6334 1.66669H5.34175C3.31675 1.66669 1.66675 3.31669 1.66675 5.34169V10.7584V10.925C1.66675 12.9584 3.31675 14.6 5.34175 14.6H8.54175C9.00008 14.6 9.37508 14.975 9.37508 15.4334V16.2417C9.37508 16.7 9.00008 17.075 8.54175 17.075H6.52508C6.18341 17.075 5.90008 17.3584 5.90008 17.7C5.90008 18.0417 6.17508 18.3334 6.52508 18.3334H13.4834C13.8251 18.3334 14.1084 18.05 14.1084 17.7084C14.1084 17.3667 13.8251 17.0834 13.4834 17.0834H11.4667C11.0084 17.0834 10.6334 16.7084 10.6334 16.25V15.4417C10.6334 14.9834 11.0084 14.6084 11.4667 14.6084H14.6417C16.6751 14.6084 18.3167 12.9584 18.3167 10.9334V10.7667V5.35002C18.3084 3.31669 16.6584 1.66669 14.6334 1.66669Z" fill="#ffffff"/>
</svg>
