<svg id="notificationBingIcon" width="65" height="64" viewBox="0 0 65 64" fill="none" xmlns="http://www.w3.org/2000/svg">
<path d="M54.3404 37.4925L51.327 32.4792C50.6604 31.3858 50.0737 29.2792 50.0737 27.9992V23.0125C50.0737 13.3325 42.207 5.46582 32.5537 5.46582C22.8737 5.49249 15.007 13.3325 15.007 23.0125V27.9725C15.007 29.2525 14.4204 31.3592 13.7804 32.4525L10.767 37.4658C9.62038 39.4125 9.35371 41.6258 10.0737 43.5458C10.7937 45.4925 12.4204 47.0392 14.5537 47.7325C17.4337 48.6925 20.3404 49.3858 23.3004 49.8925C23.5937 49.9458 23.887 49.9725 24.1804 50.0258C24.5537 50.0792 24.9537 50.1325 25.3537 50.1858C26.047 50.2925 26.7404 50.3725 27.4604 50.4258C29.1404 50.5858 30.847 50.6658 32.5537 50.6658C34.2337 50.6658 35.9137 50.5858 37.567 50.4258C38.1804 50.3725 38.7937 50.3192 39.3804 50.2392C39.8604 50.1858 40.3404 50.1325 40.8204 50.0525C41.1137 50.0258 41.407 49.9725 41.7004 49.9192C44.687 49.4392 47.647 48.6925 50.527 47.7325C52.5804 47.0392 54.1537 45.4925 54.9004 43.5192C55.647 41.5192 55.4337 39.3325 54.3404 37.4925ZM34.5004 26.6658C34.5004 27.7858 33.5937 28.6925 32.4737 28.6925C31.3537 28.6925 30.447 27.7858 30.447 26.6658V18.3992C30.447 17.2792 31.3537 16.3725 32.4737 16.3725C33.5937 16.3725 34.5004 17.2792 34.5004 18.3992V26.6658Z" fill="#7F7F7F"/>
<path d="M40.0471 53.3597C38.9271 56.453 35.9671 58.6663 32.5005 58.6663C30.3938 58.6663 28.3138 57.813 26.8471 56.293C25.9938 55.493 25.3538 54.4263 24.9805 53.333C25.3271 53.3863 25.6738 53.413 26.0471 53.4663C26.6605 53.5463 27.3005 53.6263 27.9405 53.6797C29.4605 53.813 31.0071 53.893 32.5538 53.893C34.0738 53.893 35.5938 53.813 37.0871 53.6797C37.6471 53.6263 38.2071 53.5997 38.7405 53.5197C39.1671 53.4663 39.5938 53.413 40.0471 53.3597Z" fill="#7F7F7F"/>
</svg>
