<svg id="searchZoomOutIcon" width="65" height="64" viewBox="0 0 65 64" fill="none" xmlns="http://www.w3.org/2000/svg">
<path d="M57.3008 58.667C56.8208 58.667 56.3408 58.4803 55.9941 58.1336L51.0341 53.1737C50.3141 52.4537 50.3141 51.2803 51.0341 50.5337C51.7541 49.8137 52.9275 49.8137 53.6741 50.5337L58.6341 55.4936C59.3541 56.2136 59.3541 57.387 58.6341 58.1336C58.2608 58.4803 57.7808 58.667 57.3008 58.667Z" fill="#7F7F7F"/>
<path d="M31.1673 5.3335C17.194 5.3335 5.83398 16.6935 5.83398 30.6668C5.83398 44.6402 17.194 56.0002 31.1673 56.0002C45.1407 56.0002 56.5007 44.6402 56.5007 30.6668C56.5007 16.6935 45.1407 5.3335 31.1673 5.3335ZM37.834 33.2002H24.5007C23.4073 33.2002 22.5007 32.2935 22.5007 31.2002C22.5007 30.1068 23.4073 29.2002 24.5007 29.2002H37.834C38.9273 29.2002 39.834 30.1068 39.834 31.2002C39.834 32.2935 38.9273 33.2002 37.834 33.2002Z" fill="#7F7F7F"/>
</svg>
