<svg id="soccerIcon" width="21" height="21" viewBox="0 0 21 21" fill="none" xmlns="http://www.w3.org/2000/svg">
<path fill-rule="evenodd" clip-rule="evenodd" d="M8.22361 2.04911C6.13498 2.61039 4.35508 3.92533 3.1934 5.68446L4.91904 6.15186L8.22361 3.75095V2.04911ZM2.56446 6.80914C2.04199 7.93061 1.75024 9.18123 1.75024 10.5C1.75024 11.4465 1.90053 12.3579 2.17855 13.2117L4.15324 13.4193L5.8035 11.1922L4.5545 7.34817L2.56446 6.80914ZM4.37062 16.7442C3.7136 16.0992 3.15792 15.3512 2.7297 14.5265L3.92596 14.6522L4.37062 16.7442ZM5.90425 17.9472C7.23991 18.7732 8.8144 19.25 10.5002 19.25C10.9911 19.25 11.4724 19.2096 11.9412 19.1319C11.7854 18.9846 11.7133 18.7641 11.7593 18.5477L12.6766 14.2318L10.8934 11.9305H6.81223L5.11282 14.2238L5.90425 17.9472ZM17.9852 15.0343C16.9825 16.6861 15.4484 17.9795 13.6202 18.6774L13.0764 18.3634L13.8652 14.6522L17.6385 14.2557L17.9852 15.0343ZM18.6988 13.5639C19.0553 12.6103 19.2502 11.5779 19.2502 10.5C19.2502 9.78128 19.1636 9.08281 19.0002 8.41445L15.7681 6.63696L13.1427 7.34815L11.8964 11.1841L13.6291 13.4202L17.9594 12.965C18.2287 12.9367 18.4856 13.085 18.5957 13.3324L18.6988 13.5639ZM17.0187 4.66271C17.5468 5.2521 17.9962 5.91355 18.3503 6.63049L16.6271 5.68279L17.0187 4.66271ZM16.0393 3.72607C14.5307 2.49103 12.602 1.75 10.5002 1.75C10.1529 1.75 9.81035 1.77023 9.47361 1.80959V3.75095L12.7782 6.15186L15.3785 5.44746L16.0393 3.72607ZM5.77911 7.07206L8.84861 4.84194L11.9181 7.07206L10.7457 10.6805H6.95156L5.77911 7.07206Z" fill="#E2E2E4"/>
</svg>
