<svg id="sortingArrowsIcon" width="4" height="7" viewBox="0 0 4 7" fill="none" xmlns="http://www.w3.org/2000/svg">
<path fill-rule="evenodd" clip-rule="evenodd" d="M1.52874 0.359254C1.65376 0.234273 1.8233 0.164062 2.00008 0.164062C2.17685 0.164062 2.34639 0.234273 2.47141 0.359254L3.80474 1.69259C3.89795 1.78582 3.96142 1.9046 3.98713 2.0339C4.01284 2.1632 3.99964 2.29722 3.9492 2.41902C3.89875 2.54082 3.81332 2.64493 3.70372 2.71819C3.59411 2.79144 3.46524 2.83056 3.33341 2.83059H0.666744C0.53491 2.83056 0.406045 2.79144 0.296438 2.71819C0.186832 2.64493 0.101405 2.54082 0.0509581 2.41902C0.000511373 2.29722 -0.0126902 2.1632 0.0130215 2.0339C0.0387332 1.9046 0.102204 1.78582 0.19541 1.69259L1.52874 0.359254ZM0.0507438 4.57525C0.10124 4.45346 0.186715 4.34938 0.296361 4.27616C0.406007 4.20295 0.5349 4.16389 0.666744 4.16392H3.33341C3.46524 4.16395 3.59411 4.20306 3.70372 4.27632C3.81332 4.34958 3.89875 4.45368 3.9492 4.57548C3.99964 4.69728 4.01284 4.83131 3.98713 4.96061C3.96142 5.08991 3.89795 5.20869 3.80474 5.30192L2.47141 6.63525C2.34639 6.76023 2.17685 6.83044 2.00008 6.83044C1.8233 6.83044 1.65376 6.76023 1.52874 6.63525L0.19541 5.30192C0.102122 5.20869 0.0385828 5.08989 0.0128314 4.96054C-0.0129199 4.83119 0.000273938 4.6971 0.0507438 4.57525Z" fill="#BFBFBF"/>
</svg>
