<svg id="whiteGameIcon" width="20" height="20" viewBox="0 0 20 20" fill="none" xmlns="http://www.w3.org/2000/svg">
<path d="M6.12484 5.2666H13.8748C16.057 5.2666 17.8332 7.04274 17.8332 9.22494V13.8749C17.8332 16.0571 16.057 17.8333 13.8748 17.8333H6.12484C3.94265 17.8333 2.1665 16.0571 2.1665 13.8749V9.22494C2.1665 7.04274 3.94265 5.2666 6.12484 5.2666ZM12.9165 8.68327C12.182 8.68327 11.5832 9.28213 11.5832 10.0166V10.0333C11.5832 10.1531 11.599 10.2689 11.6287 10.3788C11.5184 10.3491 11.4026 10.3333 11.2832 10.3333H11.2665C10.5255 10.3333 9.9415 10.9387 9.9415 11.6666C9.9415 12.4075 10.5552 12.9999 11.2832 12.9999C11.4029 12.9999 11.5186 12.9844 11.6284 12.9553C11.5989 13.0653 11.5832 13.1808 11.5832 13.2999V13.3166C11.5832 14.0576 12.1886 14.6416 12.9165 14.6416C13.669 14.6416 14.2498 14.0246 14.2498 13.2999C14.2498 13.1787 14.2335 13.0612 14.203 12.9495C14.3191 12.9824 14.4411 12.9999 14.5665 12.9999C15.3126 12.9999 15.8998 12.3978 15.8998 11.6666C15.8998 10.9321 15.301 10.3333 14.5665 10.3333H14.5498C14.4281 10.3333 14.3107 10.3496 14.1994 10.3801C14.2323 10.264 14.2498 10.142 14.2498 10.0166C14.2498 9.28213 13.651 8.68327 12.9165 8.68327ZM12.6165 11.6666C12.6165 11.5441 12.5998 11.4254 12.5687 11.3126C12.6798 11.3424 12.7965 11.3583 12.9165 11.3583C13.0402 11.3583 13.1598 11.3412 13.2731 11.3093C13.2416 11.4233 13.2248 11.5432 13.2248 11.6666C13.2248 11.7872 13.2411 11.9039 13.2715 12.0147C13.1584 11.9834 13.0393 11.9666 12.9165 11.9666C12.7973 11.9666 12.6816 11.9824 12.5715 12.012C12.6009 11.9016 12.6165 11.7858 12.6165 11.6666ZM7.99984 14.0749C8.28363 14.0749 8.57135 13.9689 8.79506 13.7452C9.23199 13.3082 9.23199 12.5916 8.79506 12.1547L8.29028 11.6499L8.76172 11.1785C9.19865 10.7416 9.19865 10.025 8.76172 9.58805C8.3248 9.15112 7.60821 9.15112 7.17128 9.58805L6.69984 10.0595L6.25339 9.61305C5.81646 9.17612 5.09988 9.17612 4.66295 9.61305C4.22602 10.05 4.22602 10.7666 4.66295 11.2035L5.1094 11.6499L4.63795 12.1214C4.20102 12.5583 4.20102 13.2749 4.63795 13.7118C4.86166 13.9355 5.14939 14.0416 5.43317 14.0416C5.71696 14.0416 6.00468 13.9355 6.22839 13.7118L6.69984 13.2404L7.20462 13.7452C7.42833 13.9689 7.71605 14.0749 7.99984 14.0749Z" fill="white" stroke="white"/>
<path d="M10.2164 4.36567C10.1459 4.37718 10.0736 4.38317 9.99997 4.38317C9.99716 4.38317 9.99439 4.38321 9.99163 4.3833V4.2665C9.99442 4.2665 9.9972 4.26654 9.99997 4.26662C10.0845 4.26897 10.1615 4.30689 10.2164 4.36567ZM9.49954 4.08483C9.44449 4.13988 9.40168 4.20149 9.37008 4.2665H9.19023C9.31408 3.94406 9.62577 3.7165 9.9833 3.7165C10.3553 3.7165 10.6898 3.43816 10.6916 3.02822L10.6999 2.2524C10.7024 2.20029 10.7458 2.1665 10.7833 2.1665H10.7916C10.8125 2.1665 10.8278 2.17366 10.8405 2.18695C10.8542 2.20115 10.8662 2.22445 10.8666 2.2565L10.8583 3.03582C10.8531 3.49659 10.4664 3.88317 9.99997 3.88317C9.82276 3.88317 9.63962 3.94474 9.49954 4.08483Z" fill="white" stroke="white"/>
</svg>
