<svg id="blackjack2Icon" width="21" height="21" viewBox="0 0 21 21" fill="none" xmlns="http://www.w3.org/2000/svg">
<rect x="11.7363" y="1.31768" width="10.523" height="12.2768" rx="3.48214" transform="rotate(23.8907 11.7363 1.31768)" fill="#80F31D" stroke="#1A1A1A" stroke-width="1.16071"/>
<rect y="10.2616" width="10.523" height="12.2768" rx="3.48214" transform="rotate(-30 0 10.2616)" fill="#80F31D" stroke="#1A1A1A" stroke-width="1.16071"/>
<path d="M6.26958 11.5661C6.31789 11.2414 6.66056 11.0506 6.96197 11.1805L8.55251 11.8658C8.74832 11.9501 8.8691 12.1494 8.85329 12.362L8.72799 14.048C8.70204 14.3973 8.33429 14.6123 8.01716 14.4637L6.31756 13.667C6.11748 13.5733 6.00269 13.3593 6.03522 13.1407L6.26958 11.5661Z" fill="#1A1A1A"/>
<path d="M14.4308 6.92814C14.7168 6.76721 15.0777 6.92084 15.16 7.23855L15.5942 8.91512C15.6476 9.12152 15.5643 9.33912 15.3867 9.45704L13.9781 10.3921C13.6863 10.5858 13.2909 10.4272 13.2139 10.0856L12.8007 8.25456C12.7521 8.03901 12.8507 7.8171 13.0433 7.70875L14.4308 6.92814Z" fill="#1A1A1A"/>
</svg>
