<svg id="buyCryptoIcon" width="40" height="40" viewBox="0 0 40 40" fill="none" xmlns="http://www.w3.org/2000/svg">
<path d="M36.6667 14.1668C36.6667 19.6002 32.6667 24.0835 27.4667 24.8668V24.7668C26.95 18.3002 21.7 13.0502 15.1834 12.5335H15.1334C15.9167 7.3335 20.4 3.3335 25.8334 3.3335C31.8167 3.3335 36.6667 8.1835 36.6667 14.1668Z" fill="#EEEEEE"/>
<path d="M24.9666 24.9667C24.55 19.6833 20.3166 15.45 15.0333 15.0333C14.75 15.0167 14.45 15 14.1666 15C8.18331 15 3.33331 19.85 3.33331 25.8333C3.33331 31.8167 8.18331 36.6667 14.1666 36.6667C20.15 36.6667 25 31.8167 25 25.8333C25 25.55 24.9833 25.25 24.9666 24.9667ZM15.6333 27.3L14.1666 30L12.7 27.3L9.99998 25.8333L12.7 24.3667L14.1666 21.6667L15.6333 24.3667L18.3333 25.8333L15.6333 27.3Z" fill="white"/>
</svg>