<svg id="buyCrypto2Icon" width="20" height="20" viewBox="0 0 20 20" fill="none" xmlns="http://www.w3.org/2000/svg">
<path d="M18.3336 7.08366C18.3336 9.80033 16.3336 12.042 13.7336 12.4337V12.3837C13.4752 9.15032 10.8502 6.52533 7.59189 6.26699H7.56689C7.95856 3.66699 10.2002 1.66699 12.9169 1.66699C15.9086 1.66699 18.3336 4.09199 18.3336 7.08366Z" fill="#C1FF11"/>
<path d="M12.4832 12.4833C12.2748 9.84167 10.1582 7.725 7.5165 7.51667C7.37484 7.50833 7.22484 7.5 7.08317 7.5C4.0915 7.5 1.6665 9.925 1.6665 12.9167C1.6665 15.9083 4.0915 18.3333 7.08317 18.3333C10.0748 18.3333 12.4998 15.9083 12.4998 12.9167C12.4998 12.775 12.4915 12.625 12.4832 12.4833ZM7.8165 13.65L7.08317 15L6.34984 13.65L4.99984 12.9167L6.34984 12.1833L7.08317 10.8333L7.8165 12.1833L9.1665 12.9167L7.8165 13.65Z" fill="#C1FF11"/>
</svg>
