<svg id="coinIcon" width="20" height="20" viewBox="0 0 20 20" fill="none" xmlns="http://www.w3.org/2000/svg">
<path d="M18.2667 13.9584C17.9917 16.175 16.175 17.9917 13.9584 18.2667C12.6167 18.4334 11.3667 18.0667 10.3917 17.35C9.83338 16.9417 9.96671 16.075 10.6334 15.875C13.1417 15.1167 15.1167 13.1334 15.8834 10.625C16.0834 9.9667 16.95 9.83337 17.3584 10.3834C18.0667 11.3667 18.4334 12.6167 18.2667 13.9584Z" fill="#80F31D"/>
<path d="M8.32508 1.6667C4.65008 1.6667 1.66675 4.65004 1.66675 8.32504C1.66675 12 4.65008 14.9834 8.32508 14.9834C12.0001 14.9834 14.9834 12 14.9834 8.32504C14.9751 4.65004 12.0001 1.6667 8.32508 1.6667ZM7.54175 7.3917L9.55008 8.0917C10.2751 8.35004 10.6251 8.85837 10.6251 9.6417C10.6251 10.5417 9.90841 11.2834 9.03341 11.2834H8.95841V11.325C8.95841 11.6667 8.67508 11.95 8.33341 11.95C7.99175 11.95 7.70841 11.6667 7.70841 11.325V11.275C6.78341 11.2334 6.04175 10.4584 6.04175 9.4917C6.04175 9.15004 6.32508 8.8667 6.66675 8.8667C7.00841 8.8667 7.29175 9.15004 7.29175 9.4917C7.29175 9.7917 7.50841 10.0334 7.77508 10.0334H9.02508C9.21675 10.0334 9.36675 9.85837 9.36675 9.6417C9.36675 9.35004 9.31675 9.33337 9.12508 9.2667L7.11675 8.5667C6.40008 8.3167 6.04175 7.80837 6.04175 7.0167C6.04175 6.1167 6.75841 5.37504 7.63341 5.37504H7.70841V5.3417C7.70841 5.00004 7.99175 4.7167 8.33341 4.7167C8.67508 4.7167 8.95841 5.00004 8.95841 5.3417V5.3917C9.88341 5.43337 10.6251 6.20837 10.6251 7.17503C10.6251 7.5167 10.3417 7.80003 10.0001 7.80003C9.65841 7.80003 9.37508 7.5167 9.37508 7.17503C9.37508 6.87504 9.15841 6.63337 8.89175 6.63337H7.64175C7.45008 6.63337 7.30008 6.80837 7.30008 7.02504C7.29175 7.30837 7.34175 7.32504 7.54175 7.3917Z" fill="#80F31D"/>
</svg>
