<svg id="crownIcon" width="20" height="20" viewBox="0 0 20 20" fill="none" xmlns="http://www.w3.org/2000/svg">
<path d="M14.1666 18.3333H5.83325C5.49159 18.3333 5.20825 18.05 5.20825 17.7083C5.20825 17.3667 5.49159 17.0833 5.83325 17.0833H14.1666C14.5083 17.0833 14.7916 17.3667 14.7916 17.7083C14.7916 18.05 14.5083 18.3333 14.1666 18.3333Z" fill="currentColor"/>
<path d="M16.9583 4.60001L13.6249 6.98335C13.1833 7.30001 12.5499 7.10835 12.3583 6.60001L10.7833 2.40001C10.5166 1.67501 9.49161 1.67501 9.22494 2.40001L7.64161 6.59168C7.44994 7.10835 6.82494 7.30001 6.38327 6.97501L3.04994 4.59168C2.38327 4.12501 1.49994 4.78335 1.77494 5.55835L5.24161 15.2667C5.35827 15.6 5.67494 15.8167 6.02494 15.8167H13.9666C14.3166 15.8167 14.6333 15.5917 14.7499 15.2667L18.2166 5.55835C18.4999 4.78335 17.6166 4.12501 16.9583 4.60001ZM12.0833 12.2917H7.91661C7.57494 12.2917 7.29161 12.0083 7.29161 11.6667C7.29161 11.325 7.57494 11.0417 7.91661 11.0417H12.0833C12.4249 11.0417 12.7083 11.325 12.7083 11.6667C12.7083 12.0083 12.4249 12.2917 12.0833 12.2917Z" fill="currentColor"/>
</svg>
