<svg id="documentNormalIcon" width="20" height="20" viewBox="0 0 20 20" fill="none" xmlns="http://www.w3.org/2000/svg">
<path d="M17.2584 6.76689V14.6086C17.2584 16.6586 15.5834 18.3336 13.5334 18.3336H6.4667C4.4167 18.3336 2.7417 16.6586 2.7417 14.6086V6.76689C2.7417 5.34189 3.5417 4.10023 4.7167 3.47523C5.12503 3.25856 5.63337 3.55023 5.63337 4.01689C5.63337 5.34189 6.7167 6.42523 8.0417 6.42523H11.9584C13.2834 6.42523 14.3667 5.34189 14.3667 4.01689C14.3667 3.55023 14.8667 3.25856 15.2834 3.47523C16.4584 4.10023 17.2584 5.34189 17.2584 6.76689Z" fill="white"/>
<path d="M11.9582 1.66797H8.04155C7.17489 1.66797 6.46655 2.36797 6.46655 3.23464V4.01797C6.46655 4.88464 7.16655 5.58464 8.03322 5.58464H11.9582C12.8249 5.58464 13.5249 4.88464 13.5249 4.01797V3.23464C13.5332 2.36797 12.8249 1.66797 11.9582 1.66797Z" fill="white"/>
</svg>
