<svg width="65" height="65" id="documentCopyIcon" viewBox="0 0 65 65" fill="none" xmlns="http://www.w3.org/2000/svg">
<path d="M41.834 35.5667H36.0473C31.3007 35.5667 27.434 31.7267 27.434 26.9533V21.1667C27.434 20.0733 26.554 19.1667 25.434 19.1667H16.9807C10.8207 19.1667 5.83398 23.1667 5.83398 30.3133V48.02C5.83398 55.1667 10.8207 59.1667 16.9807 59.1667H32.6873C38.8473 59.1667 43.834 55.1667 43.834 48.02V37.5667C43.834 36.4467 42.9273 35.5667 41.834 35.5667Z" fill="#7F7F7F"/>
<path d="M48.02 5.83333H42.7667H39.86H32.3134C26.2867 5.83333 21.4067 9.67333 21.1934 16.5267C21.3534 16.5267 21.4867 16.5 21.6467 16.5H29.1934H32.1H37.3534C43.5134 16.5 48.5 20.5 48.5 27.6467V32.9V40.1267V45.38C48.5 45.54 48.4734 45.6733 48.4734 45.8067C54.42 45.62 59.1667 41.6733 59.1667 34.7133V29.46V22.2333V16.98C59.1667 9.83333 54.18 5.83333 48.02 5.83333Z" fill="#7F7F7F"/>
<path d="M32.449 19.5667C31.6223 18.74 30.209 19.3 30.209 20.4467V27.4333C30.209 30.3667 32.689 32.7667 35.729 32.7667C37.6223 32.7933 40.2623 32.7933 42.529 32.7933C43.6757 32.7933 44.2623 31.46 43.4623 30.66C40.5557 27.7533 35.3823 22.5533 32.449 19.5667Z" fill="#7F7F7F"/>
</svg>
