<svg id="fire2Icon" width="40" height="40" viewBox="0 0 40 40" fill="none" xmlns="http://www.w3.org/2000/svg">
<path d="M20.1042 3.44286C19.6215 3.23123 19.146 3.37928 18.8402 3.69076C18.5432 3.99333 18.3945 4.45511 18.4987 4.92071C18.6632 5.65561 18.75 6.42019 18.75 7.20556C18.75 8.99863 18.2982 10.2545 17.5205 11.2955C16.73 12.3539 15.5858 13.2154 14.1411 14.1876C14.1184 14.2029 14.0972 14.2204 14.078 14.2398L13.903 14.4161C10.8033 16.4187 8.75 19.9056 8.75 23.8723C8.75 30.0854 13.7868 35.1223 20 35.1223C26.2132 35.1223 31.25 30.0854 31.25 23.8723C31.25 22.0479 30.8155 20.3239 30.044 18.7993C29.9812 18.6753 29.8607 18.5908 29.7227 18.5738C29.5847 18.5569 29.4473 18.6101 29.3567 18.7153C29.2392 18.8516 29.124 18.9861 29.0107 19.1186C27.5468 20.8288 26.3655 22.2091 23.9437 22.8256C23.8407 22.8518 23.7767 22.8323 23.7312 22.8039C23.6778 22.7706 23.6193 22.7039 23.5793 22.5974C23.4958 22.3756 23.5317 22.0926 23.7027 21.9073C24.998 20.5029 25.9182 18.5966 26.247 15.8847C26.8628 10.8048 24.5542 5.39386 20.1042 3.44286Z" fill="#C1FF11"/>
</svg>
