<svg id="fireIcon" width="20" height="20" viewBox="0 0 20 20" fill="none" xmlns="http://www.w3.org/2000/svg">
<path d="M10.0521 1.7208C9.81075 1.61498 9.573 1.68901 9.42008 1.84475C9.27158 1.99603 9.19725 2.22692 9.24933 2.45972C9.33158 2.82717 9.375 3.20946 9.375 3.60215C9.375 4.49868 9.14908 5.12661 8.76025 5.64714C8.365 6.1763 7.79291 6.60709 7.07055 7.09316C7.05919 7.10081 7.04862 7.10955 7.03898 7.11926L6.95149 7.20742C5.40163 8.20871 4.375 9.95216 4.375 11.9355C4.375 15.0421 6.8934 17.5605 10 17.5605C13.1066 17.5605 15.625 15.0421 15.625 11.9355C15.625 11.0233 15.4077 10.1613 15.022 9.399C14.9906 9.337 14.9303 9.29475 14.8613 9.28625C14.7923 9.27783 14.7237 9.30441 14.6783 9.357C14.6196 9.42516 14.562 9.49241 14.5053 9.55866C13.7734 10.4137 13.1827 11.1039 11.9718 11.4122C11.9203 11.4252 11.8883 11.4155 11.8656 11.4013C11.8389 11.3847 11.8097 11.3513 11.7897 11.2981C11.7479 11.1872 11.7658 11.0457 11.8513 10.953C12.499 10.2508 12.9591 9.29766 13.1235 7.94171C13.4314 5.40179 12.2771 2.6963 10.0521 1.7208Z" fill="#C1FF11"/>
</svg>
