<svg id="footballLogo" width="14" height="14" viewBox="0 0 14 14" fill="none" xmlns="http://www.w3.org/2000/svg">
<path fill-rule="evenodd" clip-rule="evenodd" d="M5.1788 0.239288C3.5079 0.688309 2.08397 1.74027 1.15463 3.14757L2.53514 3.52149L5.1788 1.60076V0.239288ZM0.651478 4.04732C0.233503 4.94449 0.000106812 5.94499 0.000106812 7C0.000106812 7.75722 0.120339 8.48636 0.342754 9.16936L1.92251 9.3354L3.24271 7.55377L2.24351 4.47853L0.651478 4.04732ZM2.09641 11.9954C1.57079 11.4793 1.12625 10.881 0.78367 10.2212L1.74068 10.3218L2.09641 11.9954ZM3.32331 12.9577C4.39184 13.6186 5.65143 14 7.00011 14C7.39277 14 7.77787 13.9677 8.15291 13.9055C8.02823 13.7877 7.97052 13.6113 8.00732 13.4382L8.74122 9.98543L7.31461 8.14438H4.0497L2.69017 9.97907L3.32331 12.9577ZM12.9881 10.6275C12.1859 11.9489 10.9586 12.9836 9.49604 13.5419L9.06099 13.2908L9.69206 10.3218L12.7107 10.0045L12.9881 10.6275ZM13.559 9.45112C13.8442 8.68827 14.0001 7.86235 14.0001 7C14.0001 6.42503 13.9308 5.86625 13.8 5.33156L11.2144 3.90957L9.11409 4.47852L8.117 7.54726L9.50319 9.33614L12.9675 8.97203C13.1829 8.94939 13.3884 9.06804 13.4765 9.26593L13.559 9.45112ZM12.2149 2.33017C12.6374 2.80168 12.9969 3.33084 13.2802 3.90439L11.9016 3.14623L12.2149 2.33017ZM11.4313 1.58086C10.2245 0.592823 8.68152 0 7.00011 0C6.72226 0 6.44819 0.0161879 6.1788 0.047672V1.60076L8.82245 3.52148L10.9027 2.95797L11.4313 1.58086ZM3.2232 4.25765L5.6788 2.47356L8.1344 4.25765L7.19644 7.14438H4.16116L3.2232 4.25765Z" fill="white"/>
</svg>
