<svg id="gameIcon" width="20" height="20" viewBox="0 0 20 20" fill="none" xmlns="http://www.w3.org/2000/svg">
<path d="M13.8751 4.76669H6.12508C3.66675 4.76669 1.66675 6.76669 1.66675 9.22503V13.875C1.66675 16.3334 3.66675 18.3334 6.12508 18.3334H13.8751C16.3334 18.3334 18.3334 16.3334 18.3334 13.875V9.22503C18.3334 6.76669 16.3334 4.76669 13.8751 4.76669ZM12.0834 10.0167C12.0834 9.55836 12.4584 9.18336 12.9167 9.18336C13.3751 9.18336 13.7501 9.55836 13.7501 10.0167C13.7501 10.475 13.3751 10.8584 12.9167 10.8584C12.4584 10.8584 12.0834 10.4917 12.0834 10.0334V10.0167ZM8.44175 13.3917C8.31675 13.5167 8.15842 13.575 8.00008 13.575C7.84175 13.575 7.68341 13.5167 7.55841 13.3917L6.70008 12.5334L5.87508 13.3584C5.75008 13.4834 5.59175 13.5417 5.43341 13.5417C5.27508 13.5417 5.11675 13.4834 4.99175 13.3584C4.75008 13.1167 4.75008 12.7167 4.99175 12.475L5.81675 11.65L5.01675 10.85C4.77508 10.6084 4.77508 10.2084 5.01675 9.96669C5.25841 9.72503 5.65841 9.72503 5.90008 9.96669L6.70008 10.7667L7.52508 9.94169C7.76675 9.70003 8.16675 9.70003 8.40842 9.94169C8.65008 10.1834 8.65008 10.5834 8.40842 10.825L7.58342 11.65L8.44175 12.5084C8.68341 12.75 8.68341 13.15 8.44175 13.3917ZM11.2834 12.5C10.8251 12.5 10.4417 12.125 10.4417 11.6667C10.4417 11.2084 10.8084 10.8334 11.2667 10.8334H11.2834C11.7417 10.8334 12.1167 11.2084 12.1167 11.6667C12.1167 12.125 11.7501 12.5 11.2834 12.5ZM12.9167 14.1417C12.4584 14.1417 12.0834 13.775 12.0834 13.3167V13.3C12.0834 12.8417 12.4584 12.4667 12.9167 12.4667C13.3751 12.4667 13.7501 12.8417 13.7501 13.3C13.7501 13.7584 13.3834 14.1417 12.9167 14.1417ZM14.5667 12.5C14.1084 12.5 13.7251 12.125 13.7251 11.6667C13.7251 11.2084 14.0917 10.8334 14.5501 10.8334H14.5667C15.0251 10.8334 15.4001 11.2084 15.4001 11.6667C15.4001 12.125 15.0334 12.5 14.5667 12.5Z" fill="#80F31D"/>
<path d="M11.3666 2.25837L11.3583 3.0417C11.35 3.77504 10.7416 4.38337 9.99997 4.38337C9.87497 4.38337 9.79997 4.4667 9.79997 4.57504C9.79997 4.68337 9.8833 4.7667 9.99163 4.7667H8.64997C8.64163 4.70837 8.6333 4.6417 8.6333 4.57504C8.6333 3.82504 9.24163 3.2167 9.9833 3.2167C10.1083 3.2167 10.1916 3.13337 10.1916 3.02504L10.2 2.2417C10.2083 1.92504 10.4666 1.6667 10.7833 1.6667H10.7916C11.1166 1.6667 11.3666 1.93337 11.3666 2.25837Z" fill="#80F31D"/>
</svg>
