<svg id="keyIcon" width="20" height="20" viewBox="0 0 20 20" fill="none" xmlns="http://www.w3.org/2000/svg">
<path d="M16.4917 3.51562C14.025 1.05729 10.025 1.05729 7.57504 3.51562C5.85004 5.22396 5.33337 7.68229 6.00004 9.84896L2.08337 13.7656C1.80837 14.049 1.61671 14.6073 1.67504 15.0073L1.92504 16.824C2.01671 17.424 2.57504 17.9906 3.17504 18.074L4.99171 18.324C5.39171 18.3823 5.95004 18.199 6.23337 17.9073L6.91671 17.224C7.08337 17.0656 7.08337 16.799 6.91671 16.6323L5.30004 15.0156C5.05837 14.774 5.05837 14.374 5.30004 14.1323C5.54171 13.8906 5.94171 13.8906 6.18337 14.1323L7.80837 15.7573C7.96671 15.9156 8.23337 15.9156 8.39171 15.7573L10.1584 13.999C12.3167 14.674 14.775 14.149 16.4917 12.4406C18.95 9.98229 18.95 5.97396 16.4917 3.51562ZM12.0834 9.99896C10.9334 9.99896 10 9.06563 10 7.91563C10 6.76562 10.9334 5.83229 12.0834 5.83229C13.2334 5.83229 14.1667 6.76562 14.1667 7.91563C14.1667 9.06563 13.2334 9.99896 12.0834 9.99896Z" fill="white"/>
</svg>
