<svg id="levelIcon" width="20" height="20" viewBox="0 0 20 20" fill="none" xmlns="http://www.w3.org/2000/svg">
<path d="M10.0001 1.6667C5.40008 1.6667 1.66675 5.40003 1.66675 10C1.66675 14.6 5.40008 18.3334 10.0001 18.3334C14.6001 18.3334 18.3334 14.6 18.3334 10C18.3334 5.40003 14.6001 1.6667 10.0001 1.6667ZM5.83342 10.625H4.16675C3.82508 10.625 3.54175 10.3417 3.54175 10C3.54175 9.65837 3.82508 9.37503 4.16675 9.37503H5.83342C6.17508 9.37503 6.45842 9.65837 6.45842 10C6.45842 10.3417 6.17508 10.625 5.83342 10.625ZM10.0001 11.875C8.96675 11.875 8.12508 11.0334 8.12508 10C8.12508 8.9667 8.96675 8.12503 10.0001 8.12503C11.0334 8.12503 11.8751 8.9667 11.8751 10C11.8751 11.0334 11.0334 11.875 10.0001 11.875ZM15.8334 10.625H14.1667C13.8251 10.625 13.5417 10.3417 13.5417 10C13.5417 9.65837 13.8251 9.37503 14.1667 9.37503H15.8334C16.1751 9.37503 16.4584 9.65837 16.4584 10C16.4584 10.3417 16.1751 10.625 15.8334 10.625Z" fill="#80F31D"/>
</svg>
