<svg id="medalStarIcon" width="20" height="20" viewBox="0 0 20 20" fill="none" xmlns="http://www.w3.org/2000/svg">
<path d="M17.7076 15.3905L16.3326 15.7155C16.0242 15.7905 15.7826 16.0238 15.7159 16.3321L15.4242 17.5571C15.2659 18.2238 14.4159 18.4321 13.9742 17.9071L11.4826 15.0405C11.2826 14.8071 11.3909 14.4405 11.6909 14.3655C13.1659 14.0071 14.4909 13.1821 15.4659 12.0071C15.6242 11.8155 15.9076 11.7905 16.0826 11.9655L17.9326 13.8155C18.5659 14.4488 18.3409 15.2405 17.7076 15.3905Z" fill="#C1FF11"/>
<path d="M2.25062 15.3905L3.62562 15.7155C3.93396 15.7905 4.17562 16.0238 4.24229 16.3321L4.53396 17.5571C4.69229 18.2238 5.54229 18.4321 5.98396 17.9071L8.47562 15.0405C8.67562 14.8071 8.56729 14.4405 8.26729 14.3655C6.79229 14.0071 5.46729 13.1821 4.49229 12.0071C4.33396 11.8155 4.05062 11.7905 3.87562 11.9655L2.02562 13.8155C1.39229 14.4488 1.61729 15.2405 2.25062 15.3905Z" fill="#C1FF11"/>
<path d="M9.99935 1.66797C6.77435 1.66797 4.16602 4.2763 4.16602 7.5013C4.16602 8.70964 4.52435 9.81797 5.14102 10.743C6.04102 12.0763 7.46602 13.018 9.12435 13.2596C9.40768 13.3096 9.69935 13.3346 9.99935 13.3346C10.2993 13.3346 10.591 13.3096 10.8743 13.2596C12.5327 13.018 13.9577 12.0763 14.8577 10.743C15.4743 9.81797 15.8327 8.70964 15.8327 7.5013C15.8327 4.2763 13.2243 1.66797 9.99935 1.66797ZM12.5493 7.31797L11.8577 8.00963C11.741 8.1263 11.6743 8.3513 11.716 8.51797L11.916 9.3763C12.0743 10.0513 11.716 10.318 11.116 9.95963L10.2827 9.46797C10.1327 9.3763 9.88268 9.3763 9.73268 9.46797L8.89935 9.95963C8.29935 10.3096 7.94102 10.0513 8.09935 9.3763L8.29935 8.51797C8.33268 8.35964 8.27435 8.1263 8.15768 8.00963L7.44935 7.31797C7.04102 6.90964 7.17435 6.5013 7.74102 6.40964L8.63268 6.25964C8.78268 6.23464 8.95768 6.1013 9.02435 5.96797L9.51602 4.98464C9.78268 4.4513 10.216 4.4513 10.4827 4.98464L10.9743 5.96797C11.041 6.1013 11.216 6.23464 11.3743 6.25964L12.266 6.40964C12.8243 6.5013 12.9577 6.90964 12.5493 7.31797Z" fill="#C1FF11"/>
</svg>
