<svg id="messageNotifIcon" width="20" height="20" viewBox="0 0 20 20" fill="none" xmlns="http://www.w3.org/2000/svg">
<path d="M16.6667 5.62533C17.9323 5.62533 18.9583 4.59931 18.9583 3.33366C18.9583 2.06801 17.9323 1.04199 16.6667 1.04199C15.401 1.04199 14.375 2.06801 14.375 3.33366C14.375 4.59931 15.401 5.62533 16.6667 5.62533Z" fill="#C1FF11"/>
<path d="M15.8665 6.79199C14.5582 6.50866 13.4915 5.44199 13.2082 4.13366C13.0998 3.62533 13.0915 3.13366 13.1832 2.66699C13.2915 2.15033 12.9082 1.66699 12.3748 1.66699H5.83317C3.53317 1.66699 1.6665 3.53366 1.6665 5.83366V11.6253C1.6665 13.9253 3.53317 15.792 5.83317 15.792H7.08317C7.3165 15.792 7.6165 15.942 7.74984 16.1253L8.99984 17.7837C9.54984 18.517 10.4498 18.517 10.9998 17.7837L12.2498 16.1253C12.4082 15.917 12.6498 15.792 12.9165 15.792H14.1748C16.4748 15.792 18.3332 13.9337 18.3332 11.6337V7.62533C18.3332 7.10033 17.8498 6.71699 17.3332 6.81699C16.8665 6.90033 16.3748 6.90033 15.8665 6.79199ZM6.6665 10.0003C6.19984 10.0003 5.83317 9.62533 5.83317 9.16699C5.83317 8.70866 6.19984 8.33366 6.6665 8.33366C7.12484 8.33366 7.49984 8.70866 7.49984 9.16699C7.49984 9.62533 7.13317 10.0003 6.6665 10.0003ZM9.99984 10.0003C9.53317 10.0003 9.1665 9.62533 9.1665 9.16699C9.1665 8.70866 9.53317 8.33366 9.99984 8.33366C10.4582 8.33366 10.8332 8.70866 10.8332 9.16699C10.8332 9.62533 10.4665 10.0003 9.99984 10.0003ZM13.3332 10.0003C12.8665 10.0003 12.4998 9.62533 12.4998 9.16699C12.4998 8.70866 12.8665 8.33366 13.3332 8.33366C13.7915 8.33366 14.1665 8.70866 14.1665 9.16699C14.1665 9.62533 13.7998 10.0003 13.3332 10.0003Z" fill="#C1FF11"/>
</svg>
