<svg id="playCircleIcon" width="20" height="20" viewBox="0 0 20 20" fill="none" xmlns="http://www.w3.org/2000/svg">
<path d="M9.97493 1.6667C5.37493 1.6667 1.6416 5.40004 1.6416 10C1.6416 14.6 5.37493 18.3334 9.97493 18.3334C14.5749 18.3334 18.3083 14.6 18.3083 10C18.3083 5.40004 14.5833 1.6667 9.97493 1.6667ZM12.4749 11.8584L10.0583 13.25C9.75827 13.425 9.42493 13.5084 9.09993 13.5084C8.7666 13.5084 8.4416 13.425 8.1416 13.25C7.5416 12.9 7.18327 12.2834 7.18327 11.5834V8.7917C7.18327 8.10004 7.5416 7.47504 8.1416 7.12504C8.7416 6.77504 9.45827 6.77504 10.0666 7.12504L12.4833 8.5167C13.0833 8.8667 13.4416 9.48337 13.4416 10.1834C13.4416 10.8834 13.0833 11.5084 12.4749 11.8584Z" fill="#80F31D"/>
</svg>
