<svg id="securitySafeIcon" width="16" height="16" viewBox="0 0 16 16" fill="none" xmlns="http://www.w3.org/2000/svg">
<path d="M13.9405 7.41484V4.48818C13.9405 3.94151 13.5272 3.32151 13.0139 3.11484L9.30055 1.59484C8.46721 1.25484 7.52721 1.25484 6.69388 1.59484L2.98055 3.11484C2.47388 3.32151 2.06055 3.94151 2.06055 4.48818V7.41484C2.06055 10.6748 4.42721 13.7282 7.66055 14.6215C7.88055 14.6815 8.12055 14.6815 8.34055 14.6215C11.5739 13.7282 13.9405 10.6748 13.9405 7.41484ZM8.50055 8.58151V10.3348C8.50055 10.6082 8.27388 10.8348 8.00055 10.8348C7.72721 10.8348 7.50055 10.6082 7.50055 10.3348V8.58151C6.82721 8.36818 6.33388 7.74151 6.33388 7.00151C6.33388 6.08151 7.08055 5.33484 8.00055 5.33484C8.92055 5.33484 9.66721 6.08151 9.66721 7.00151C9.66721 7.74818 9.17388 8.36818 8.50055 8.58151Z" fill="white"/>
</svg>
