<svg id="sendYellowTriangle" width="16" height="16" viewBox="0 0 16 16" fill="none" xmlns="http://www.w3.org/2000/svg">
<path d="M13.0583 5.09056L5.925 1.52389C1.13333 -0.876109 -0.833335 1.09056 1.56667 5.88223L2.29166 7.33222C2.5 7.75723 2.5 8.24889 2.29166 8.67389L1.56667 10.1156C-0.833335 14.9072 1.125 16.8739 5.925 14.4739L13.0583 10.9072C16.2583 9.30723 16.2583 6.69056 13.0583 5.09056ZM10.3667 8.62389H5.86666C5.525 8.62389 5.24166 8.34056 5.24166 7.99889C5.24166 7.65723 5.525 7.37389 5.86666 7.37389H10.3667C10.7083 7.37389 10.9917 7.65723 10.9917 7.99889C10.9917 8.34056 10.7083 8.62389 10.3667 8.62389Z" fill="#C1FF11"/>
</svg>
