<svg id="settingIcon" width="20" height="20" viewBox="0 0 20 20" fill="none" xmlns="http://www.w3.org/2000/svg">
<path d="M17.7499 5.81666H13.0999C13.073 5.81666 13.0535 5.80684 13.0399 5.79332C13.0264 5.77979 13.0166 5.76029 13.0166 5.73333C13.0166 5.70636 13.0264 5.68687 13.0399 5.67334C13.0535 5.65981 13.073 5.64999 13.0999 5.64999H17.7499C17.7769 5.64999 17.7964 5.65981 17.8099 5.67334C17.8235 5.68687 17.8333 5.70636 17.8333 5.73333C17.8333 5.76029 17.8235 5.77979 17.8099 5.79332C17.7964 5.80684 17.7769 5.81666 17.7499 5.81666Z" fill="#FFFFFF" stroke="#FFFFFF"/>
<path d="M5.35033 5.81666H2.25033C2.22336 5.81666 2.20387 5.80684 2.19034 5.79332C2.17681 5.77979 2.16699 5.76029 2.16699 5.73333C2.16699 5.70636 2.17681 5.68687 2.19034 5.67334C2.20387 5.65981 2.22336 5.64999 2.25033 5.64999H5.35033C5.37729 5.64999 5.39678 5.65981 5.41031 5.67334C5.42384 5.68687 5.43366 5.70636 5.43366 5.73333C5.43366 5.77755 5.39551 5.81666 5.35033 5.81666Z" fill="#FFFFFF" stroke="#FFFFFF"/>
<path d="M8.44987 9.02501C10.2678 9.02501 11.7415 7.55128 11.7415 5.73335C11.7415 3.91541 10.2678 2.44168 8.44987 2.44168C6.63193 2.44168 5.1582 3.91541 5.1582 5.73335C5.1582 7.55128 6.63193 9.02501 8.44987 9.02501Z" fill="#FFFFFF"/>
<path d="M17.7497 14.8417H14.6497C14.3247 14.8417 14.0664 14.5833 14.0664 14.2583C14.0664 13.9333 14.3247 13.675 14.6497 13.675H17.7497C18.0747 13.675 18.3331 13.9333 18.3331 14.2583C18.3331 14.5833 18.0747 14.8417 17.7497 14.8417Z" fill="#FFFFFF"/>
<path d="M6.90033 14.8417H2.25033C1.92533 14.8417 1.66699 14.5833 1.66699 14.2583C1.66699 13.9333 1.92533 13.675 2.25033 13.675H6.90033C7.22533 13.675 7.48366 13.9333 7.48366 14.2583C7.48366 14.5833 7.21699 14.8417 6.90033 14.8417Z" fill="#FFFFFF"/>
<path d="M11.5505 17.5583C13.3684 17.5583 14.8421 16.0846 14.8421 14.2667C14.8421 12.4487 13.3684 10.975 11.5505 10.975C9.73252 10.975 8.25879 12.4487 8.25879 14.2667C8.25879 16.0846 9.73252 17.5583 11.5505 17.5583Z" fill="#FFFFFF"/>
</svg>
