<svg id="smsIcon" width="20" height="20" viewBox="0 0 20 20" fill="none" xmlns="http://www.w3.org/2000/svg">
<path d="M14.1667 2.91797H5.83342C3.33341 2.91797 1.66675 4.16797 1.66675 7.08464V12.918C1.66675 15.8346 3.33341 17.0846 5.83342 17.0846H14.1667C16.6667 17.0846 18.3334 15.8346 18.3334 12.918V7.08464C18.3334 4.16797 16.6667 2.91797 14.1667 2.91797ZM14.5584 7.99297L11.9501 10.0763C11.4001 10.518 10.7001 10.7346 10.0001 10.7346C9.30008 10.7346 8.59175 10.518 8.05008 10.0763L5.44175 7.99297C5.17508 7.7763 5.13341 7.3763 5.34175 7.10964C5.55841 6.84297 5.95008 6.79297 6.21675 7.00964L8.82508 9.09297C9.45842 9.6013 10.5334 9.6013 11.1667 9.09297L13.7751 7.00964C14.0417 6.79297 14.4417 6.83464 14.6501 7.10964C14.8667 7.3763 14.8251 7.7763 14.5584 7.99297Z" fill="white"/>
</svg>
