<svg id="yellowWalletIcon" width="40" height="40" viewBox="0 0 40 40" fill="none" xmlns="http://www.w3.org/2000/svg">
<path d="M36.6657 18.282V21.7154C36.6657 22.632 35.9324 23.382 34.9991 23.4154H31.7324C29.9324 23.4154 28.2824 22.0987 28.1324 20.2987C28.0324 19.2487 28.4324 18.2654 29.1324 17.582C29.7491 16.9487 30.5991 16.582 31.5324 16.582H34.9991C35.9324 16.6154 36.6657 17.3654 36.6657 18.282Z" fill="#C1FF11"/>
<path d="M34.1173 25.9154H31.734C28.5673 25.9154 25.9007 23.532 25.634 20.4987C25.484 18.7654 26.1173 17.032 27.384 15.7987C28.4507 14.6987 29.934 14.082 31.534 14.082H34.1173C34.6007 14.082 35.0007 13.682 34.9507 13.1987C34.584 9.1487 31.9007 6.38203 27.9173 5.91536C27.5173 5.8487 27.1007 5.83203 26.6673 5.83203H11.6673C11.2007 5.83203 10.7507 5.86536 10.3173 5.93203C6.06732 6.46536 3.33398 9.63203 3.33398 14.1654V25.832C3.33398 30.432 7.06732 34.1654 11.6673 34.1654H26.6673C31.334 34.1654 34.5507 31.2487 34.9507 26.7987C35.0007 26.3154 34.6007 25.9154 34.1173 25.9154ZM21.6673 16.2487H11.6673C10.984 16.2487 10.4173 15.682 10.4173 14.9987C10.4173 14.3154 10.984 13.7487 11.6673 13.7487H21.6673C22.3507 13.7487 22.9173 14.3154 22.9173 14.9987C22.9173 15.682 22.3507 16.2487 21.6673 16.2487Z" fill="#C1FF11"/>
</svg>
